<?xml version="1.0" standalone="no"?>
<!DOCTYPE svg PUBLIC "-//W3C//DTD SVG 20010904//EN"
 "http://www.w3.org/TR/2001/REC-SVG-20010904/DTD/svg10.dtd">
<svg version="1.0" xmlns="http://www.w3.org/2000/svg"
 width="587.000000pt" height="587.000000pt" viewBox="0 0 587.000000 587.000000"
 preserveAspectRatio="xMidYMid meet">

<g transform="translate(0.000000,587.000000) scale(0.100000,-0.100000)"
fill="#000000" stroke="none">
<path d="M2773 5823 c-17 -27 -33 -66 -35 -88 -4 -36 -7 -40 -33 -41 -36 -2
-106 20 -141 43 -23 15 -25 21 -19 60 6 44 6 44 -22 41 -30 -3 -30 -3 -50
-162 l-8 -59 -70 -19 c-38 -11 -81 -22 -95 -25 -60 -12 -130 -57 -172 -110
-24 -29 -45 -63 -48 -76 -4 -13 -22 -30 -45 -42 -74 -38 -85 -49 -92 -88 -5
-35 -44 -77 -71 -77 -5 0 -26 -16 -46 -35 -21 -19 -41 -35 -45 -35 -4 0 -20
-19 -35 -42 -23 -35 -28 -55 -29 -109 -1 -37 -5 -65 -9 -63 -12 8 -19 -36 -21
-131 -1 -50 -5 -94 -8 -100 -4 -5 -9 -27 -13 -47 l-7 -38 -94 0 c-202 0 -323
-59 -386 -187 -33 -66 -33 -207 -2 -268 59 -112 209 -194 354 -195 26 0 51 -6
57 -13 6 -7 15 -46 21 -87 6 -41 15 -108 22 -148 15 -95 8 -104 -64 -74 -65
27 -72 27 -91 0 -13 -18 -16 -55 -16 -190 0 -175 6 -198 37 -133 25 52 36 42
14 -12 -13 -35 -16 -56 -10 -78 5 -16 7 -36 4 -42 -2 -7 2 -13 10 -13 8 0 20
-9 27 -20 7 -11 19 -20 26 -20 13 0 9 -38 -10 -76 -7 -15 -7 -28 1 -42 16 -30
14 -50 -10 -83 -13 -19 -29 -29 -45 -29 -95 0 -80 -96 21 -134 37 -15 64 -39
71 -66 0 -3 4 -12 7 -20 13 -29 27 -106 27 -146 0 -22 9 -67 20 -100 12 -32
28 -84 36 -114 8 -30 21 -65 29 -77 14 -20 22 -49 46 -148 10 -44 20 -505 12
-573 -5 -38 -10 -46 -39 -58 -18 -8 -45 -14 -59 -14 -52 0 -146 -34 -174 -62
-23 -23 -57 -36 -197 -73 -266 -70 -355 -97 -419 -128 -108 -53 -185 -87 -195
-87 -27 0 4 -36 172 -204 190 -188 297 -275 496 -403 120 -77 412 -227 498
-257 l47 -16 -20 23 c-11 12 -38 72 -60 132 -39 110 -47 137 -99 335 -15 58
-34 128 -42 155 -9 33 -15 98 -16 190 -1 119 3 151 21 210 24 75 58 139 71
131 4 -2 9 -46 11 -98 3 -112 5 -130 13 -144 8 -11 5 -44 -7 -86 -4 -18 -2
-38 9 -58 9 -19 13 -43 9 -60 -9 -48 6 -113 33 -145 36 -41 65 -101 63 -128
-4 -46 2 -66 27 -96 14 -17 34 -31 45 -31 15 0 112 -40 194 -81 11 -5 31 -33
45 -61 14 -28 31 -53 38 -55 7 -3 10 -13 7 -23 -3 -9 1 -22 8 -29 8 -6 12 -21
10 -34 -3 -13 4 -31 16 -44 13 -13 21 -38 23 -69 l3 -49 54 -11 c204 -46 559
-70 778 -54 264 20 523 73 778 160 249 85 627 294 850 470 117 92 400 380 483
491 40 53 72 99 72 102 0 4 -18 7 -39 7 -22 0 -52 5 -66 10 -15 6 -58 15 -97
21 -39 6 -90 18 -112 26 -23 7 -74 18 -114 23 -40 5 -107 21 -150 36 -42 14
-83 28 -91 30 -11 4 -11 8 3 22 9 10 16 23 16 27 0 20 -76 75 -103 75 -15 0
-35 5 -45 11 -22 14 -72 -4 -72 -26 0 -28 -39 -32 -123 -13 -136 31 -150 36
-212 74 -55 33 -193 90 -200 82 -7 -7 -12 -118 -5 -118 13 0 19 -82 8 -109 -6
-14 -10 -31 -10 -37 1 -5 -6 -19 -16 -30 -11 -11 -22 -26 -25 -34 -3 -9 -6 -3
-6 13 -1 15 3 27 7 27 10 0 32 60 32 88 0 24 -10 28 -27 11 -8 -8 -13 -5 -18
10 -3 12 -11 21 -16 21 -6 0 -7 -9 -4 -21 6 -19 5 -20 -8 -8 -13 12 -13 17 7
44 25 33 46 85 52 129 6 46 83 239 98 248 7 4 19 22 26 40 7 18 22 43 32 54
11 12 19 30 18 40 -4 36 0 44 26 56 18 8 24 17 20 31 -3 11 2 30 10 42 8 13
14 27 13 31 -1 5 1 27 6 50 6 38 11 42 55 58 37 13 82 18 194 18 107 0 146 4
150 13 6 16 -42 27 -64 15 -18 -10 -66 13 -80 39 -5 11 -10 35 -10 53 0 19 -6
42 -12 51 -9 12 -13 57 -12 144 1 70 -2 136 -7 148 -5 12 -8 -19 -7 -83 1 -66
-3 -107 -10 -114 -16 -16 -15 -45 1 -51 9 -4 9 -6 0 -6 -7 -1 -10 -7 -8 -13 2
-7 -1 -40 -8 -73 -10 -49 -16 -60 -32 -60 -11 0 -24 10 -30 23 -5 12 -13 22
-17 22 -5 0 -8 20 -8 45 0 31 5 47 15 51 9 4 15 19 15 39 0 18 7 49 16 70 8
20 13 42 11 48 -2 7 4 31 14 54 10 23 14 45 9 48 -8 5 2 52 39 180 11 39 21
83 21 98 0 27 -27 87 -40 87 -3 0 -4 48 -2 107 3 98 7 118 43 210 21 56 39
113 39 126 0 14 11 50 25 80 14 31 30 88 34 129 13 108 22 125 70 133 23 4 58
4 80 0 37 -6 71 10 71 35 0 18 -33 40 -59 40 -37 0 -55 17 -70 66 -12 36 -11
46 4 77 15 31 15 38 2 64 -11 21 -12 44 -6 93 4 36 5 86 2 111 -4 34 -1 53 11
70 21 30 20 62 -1 102 -13 25 -16 51 -13 117 9 207 13 190 -57 259 -41 40 -63
69 -63 84 0 13 -15 41 -32 63 -48 57 -68 98 -68 137 0 26 -10 47 -36 79 -20
23 -44 43 -53 44 -9 1 -20 2 -26 4 -5 1 -21 3 -35 3 -19 2 -26 8 -28 27 -7 63
-62 131 -104 128 -22 -2 -27 -6 -22 -20 3 -10 1 -18 -5 -18 -5 0 -17 -8 -27
-17 -16 -16 -16 -16 -9 5 4 15 1 32 -9 47 -14 21 -21 23 -61 19 -43 -5 -49 -3
-90 35 -24 22 -40 42 -37 45 3 4 27 3 52 0 61 -8 92 8 88 44 -3 23 -9 28 -48
34 -26 4 -52 16 -61 28 -23 27 -66 43 -76 27 -11 -16 -71 -47 -92 -47 -9 0
-26 -6 -36 -14 -22 -16 -45 -5 -98 43 -25 22 -37 26 -92 25 -62 -1 -63 0 -79
33 -9 18 -16 40 -16 47 0 7 -14 16 -31 20 -54 11 -59 8 -59 -28 0 -19 -3 -37
-8 -40 -4 -2 -36 2 -71 10 -63 15 -64 15 -100 -11 -37 -25 -111 -35 -111 -15
0 6 -15 10 -34 10 -71 0 -82 19 -40 69 l26 31 -54 0 c-54 0 -55 0 -85 -47z
m14 -818 c18 -3 35 -11 38 -15 3 -5 16 -4 30 2 18 8 28 8 39 -1 18 -15 163
-18 178 -3 7 7 19 7 42 -1 55 -19 93 -55 107 -102 7 -25 17 -45 21 -45 4 0 8
-6 8 -13 0 -14 44 -57 59 -57 5 0 12 6 15 13 3 9 9 7 19 -6 14 -16 16 -16 40
3 14 11 32 20 41 20 19 0 21 16 4 23 -9 4 -10 6 -1 6 6 1 18 -6 27 -14 17 -18
43 -20 48 -4 5 15 117 20 178 9 33 -6 47 -5 55 5 9 13 56 35 74 35 4 0 13 -12
19 -26 7 -14 17 -22 22 -19 12 8 117 -32 143 -54 11 -9 24 -16 30 -16 19 -1
77 -39 77 -51 0 -6 11 -24 24 -39 13 -15 28 -37 34 -49 42 -95 74 -156 81
-156 18 0 55 -91 66 -165 14 -95 12 -264 -4 -294 -7 -13 -10 -54 -7 -105 4
-97 19 -92 -114 -36 -41 17 -110 44 -152 58 -43 14 -78 31 -78 38 0 28 -96 77
-110 55 -5 -10 -8 -10 -13 1 -3 8 -25 20 -48 27 -24 7 -57 21 -74 31 -16 10
-45 21 -64 25 -21 4 -35 14 -38 26 -3 10 -11 19 -18 19 -7 0 -26 7 -41 15 -17
9 -40 13 -56 9 -21 -4 -28 -2 -28 10 0 9 -4 16 -10 16 -5 0 -10 9 -10 20 0 11
-7 20 -15 20 -8 0 -15 -9 -15 -20 0 -11 -5 -20 -11 -20 -7 0 -9 13 -6 38 3 20
3 29 1 20 -3 -10 -11 -18 -17 -18 -7 0 -23 -3 -36 -7 -17 -4 -22 -3 -17 6 11
17 -12 41 -40 41 -14 0 -24 6 -24 14 0 9 -7 13 -18 11 -30 -5 -49 11 -36 32
14 23 -5 46 -27 32 -10 -6 -10 -9 -1 -9 6 0 12 -7 12 -15 0 -8 -7 -15 -15 -15
-8 0 -15 7 -15 16 0 11 -6 15 -20 11 -12 -3 -20 0 -20 7 0 17 -38 56 -55 56
-8 0 -16 -10 -16 -22 l-2 -23 -4 22 c-2 12 -12 23 -21 25 -26 6 -76 -10 -90
-29 -14 -20 -21 -20 -32 -2 -5 6 -29 13 -54 14 -35 1 -46 -2 -46 -14 -1 -13
-4 -12 -15 3 -12 16 -27 20 -75 20 -61 0 -68 4 -49 23 7 7 3 11 -15 11 -14 0
-23 -5 -20 -10 4 -5 -4 -8 -17 -6 -13 2 -23 9 -22 15 2 8 -19 11 -71 8 -56 -3
-77 0 -86 11 -7 8 -20 14 -29 14 -11 1 -8 7 12 21 33 25 38 60 6 52 -11 -3
-18 -11 -16 -17 3 -6 -5 -12 -18 -12 -36 -3 -95 -46 -93 -69 2 -13 -2 -19 -12
-18 -23 4 -94 -40 -98 -60 -4 -21 24 -23 32 -2 8 22 26 18 26 -5 0 -12 -7 -20
-16 -20 -20 0 -76 -31 -87 -47 -4 -7 -15 -13 -23 -13 -30 0 -10 -35 21 -37 17
0 48 -5 70 -10 33 -8 16 -11 -105 -17 -139 -7 -170 -15 -170 -40 0 -22 -58
-76 -75 -70 -9 4 -13 10 -8 13 11 8 29 38 52 89 11 23 25 42 30 42 6 0 10 3
10 8 -3 20 2 32 16 32 8 0 16 6 16 13 1 6 3 19 3 27 4 37 18 80 26 75 15 -9
21 51 10 100 -9 41 -12 96 -10 224 0 47 32 116 82 178 28 35 56 63 62 63 6 0
17 9 24 20 11 18 14 19 27 6 8 -8 15 -22 15 -31 0 -21 27 -30 53 -17 12 6 63
16 112 23 50 6 96 16 103 22 10 8 16 7 22 -2 9 -15 60 -7 71 10 3 5 21 11 40
13 19 2 50 13 69 24 34 21 35 21 55 3 11 -10 35 -22 52 -26z m-562 15 c3 -5 1
-10 -4 -10 -6 0 -11 5 -11 10 0 6 2 10 4 10 3 0 8 -4 11 -10z m-629 -532 c26
-9 33 -18 36 -45 2 -20 -2 -38 -11 -47 -10 -11 -12 -21 -5 -37 6 -12 7 -53 2
-98 -7 -75 -17 -218 -18 -255 0 -16 -6 -18 -52 -13 -88 9 -230 44 -239 58 -5
8 -9 24 -9 36 0 12 -11 43 -25 69 -19 35 -25 62 -25 106 0 92 28 143 109 199
53 36 175 50 237 27z m739 -58 c3 -5 1 -10 -4 -10 -6 0 -11 5 -11 10 0 6 2 10
4 10 3 0 8 -4 11 -10z m162 -16 c-3 -3 -12 -4 -19 -1 -8 3 -5 6 6 6 11 1 17
-2 13 -5z m-147 -94 c0 -5 -5 -10 -11 -10 -5 0 -7 5 -4 10 3 6 8 10 11 10 2 0
4 -4 4 -10z m74 -55 c3 -8 1 -15 -3 -15 -5 0 -16 -3 -24 -6 -8 -3 -17 2 -21
12 -4 12 -2 15 9 10 8 -3 15 -1 15 4 0 16 17 12 24 -5z m-71 -32 c-7 -2 -19
-2 -25 0 -7 3 -2 5 12 5 14 0 19 -2 13 -5z m-30 -20 c-13 -2 -35 -2 -50 0 -16
2 -5 4 22 4 28 0 40 -2 28 -4z m65 -75 c-5 -16 -41 -22 -74 -14 -42 11 -26 26
27 26 36 0 49 -4 47 -12z m53 -63 c-1 -15 -24 -12 -29 3 -3 9 2 13 12 10 10
-1 17 -7 17 -13z m-464 -87 c-2 -13 -4 -5 -4 17 -1 22 1 32 4 23 2 -10 2 -28
0 -40z m-38 8 c-2 -2 -15 -9 -29 -16 -23 -12 -24 -12 -11 3 7 10 20 17 29 17
8 0 13 -2 11 -4z m499 -13 c2 -8 -5 -13 -17 -13 -21 0 -35 13 -24 24 10 10 36
3 41 -11z m42 -17 c0 -11 -19 -15 -25 -6 -3 5 1 10 9 10 9 0 16 -2 16 -4z
m1614 -189 c17 -26 31 -111 21 -126 -4 -8 -12 -6 -22 5 -14 13 -14 17 -2 25
12 8 12 11 -2 22 -9 6 -19 28 -22 47 -4 19 -17 45 -30 58 l-22 25 32 -17 c18
-9 39 -26 47 -39z m-2330 20 c21 -15 47 -83 40 -102 -3 -7 4 -16 15 -20 12 -3
24 -17 27 -31 3 -13 12 -24 20 -24 8 0 14 -7 14 -15 0 -8 11 -22 25 -31 14 -9
25 -22 25 -28 0 -7 9 -22 20 -34 11 -12 20 -27 20 -35 0 -7 13 -31 30 -53 34
-46 38 -69 11 -84 -25 -13 -61 -13 -61 0 0 23 -29 8 -41 -22 -12 -30 -13 -30
-22 -10 -12 25 -27 29 -27 7 0 -8 -4 -15 -10 -15 -5 0 -10 -9 -10 -20 0 -13
-9 -22 -26 -26 -32 -8 -51 14 -26 32 14 10 13 13 -6 23 -14 8 -22 8 -22 1 0
-5 -6 -10 -14 -10 -9 0 -12 7 -9 20 3 11 9 20 14 20 5 0 9 5 9 10 0 6 -6 10
-13 10 -16 0 -12 63 6 99 9 19 9 25 0 28 -18 6 -16 24 5 39 16 12 15 13 -5 14
-22 0 -23 -4 -23 -67 0 -36 -3 -64 -6 -61 -7 7 -10 195 -4 202 3 2 14 6 25 8
39 6 65 58 30 58 -8 0 -15 -8 -15 -18 0 -20 -40 -28 -41 -9 0 7 -4 3 -9 -8 -7
-17 -9 -14 -9 13 -1 20 3 31 9 27 13 -8 13 1 -2 24 -9 14 -8 23 5 42 10 13 17
31 17 41 0 21 10 23 34 5z m2561 -192 l5 -80 -24 95 c-14 52 -23 105 -19 118
5 23 7 21 19 -14 8 -22 17 -75 19 -119z m-1195 128 c28 -5 50 -21 50 -36 0 -6
6 -18 14 -26 22 -25 66 -180 69 -246 2 -37 11 -71 22 -88 15 -23 16 -30 5 -37
-7 -4 -10 -15 -7 -25 4 -9 3 -14 -3 -10 -6 3 -10 2 -10 -4 0 -5 5 -11 10 -13
6 -2 12 -13 15 -26 5 -30 15 -43 25 -37 13 8 22 -34 18 -81 l-3 -39 -22 24
c-12 13 -26 20 -32 17 -7 -4 -8 -1 -5 8 5 12 0 16 -20 16 -14 0 -26 5 -26 10
0 6 -6 10 -14 10 -7 0 -34 11 -59 24 -25 14 -47 22 -50 19 -3 -2 -10 5 -17 16
-6 12 -15 19 -21 16 -5 -4 -9 3 -9 15 0 24 -16 57 -37 78 -7 7 -13 20 -13 27
0 8 -10 17 -22 21 -13 4 -26 12 -30 18 -6 8 -11 7 -17 -3 -8 -12 -12 -10 -22
12 -7 15 -18 27 -26 27 -7 0 -13 4 -13 9 0 5 -3 16 -6 25 -4 12 0 16 16 16 15
0 20 5 17 14 -3 8 3 23 14 34 10 12 19 31 19 44 0 19 2 20 10 8 7 -11 10 -8
10 16 0 16 -5 35 -11 41 -14 14 6 49 53 95 27 26 35 29 67 23 20 -4 47 -9 61
-12z m-1095 -63 c3 -5 1 -10 -4 -10 -6 0 -11 5 -11 10 0 6 2 10 4 10 3 0 8 -4
11 -10z m130 -14 c22 -4 52 -7 66 -7 36 2 109 -31 150 -66 19 -17 43 -35 54
-41 31 -18 -57 -15 -129 3 -121 32 -196 80 -196 127 0 9 3 9 8 2 4 -6 25 -14
47 -18z m2075 -61 c0 -10 -5 -11 -25 -2 -28 14 -29 16 -14 54 l11 28 14 -34
c8 -18 14 -39 14 -46z m-2071 -45 c69 -34 213 -66 344 -76 53 -4 97 -10 97
-14 0 -14 -29 -32 -40 -25 -5 3 -10 -1 -10 -9 0 -9 -6 -16 -12 -16 -28 -1
-125 -56 -121 -67 5 -13 -13 -17 -50 -13 -10 1 -24 -3 -31 -9 -17 -15 -72 6
-116 44 -53 47 -91 90 -82 93 5 1 -9 22 -30 45 -43 46 -62 77 -72 120 l-6 27
36 -36 c20 -19 62 -48 93 -64z m698 -62 c-3 -8 -6 -5 -6 6 -1 11 2 17 5 13 3
-3 4 -12 1 -19z m-122 2 c-3 -5 -12 -10 -18 -10 -7 0 -6 4 3 10 19 12 23 12
15 0z m-68 -26 c-3 -3 -12 -4 -19 -1 -8 3 -5 6 6 6 11 1 17 -2 13 -5z m1607
-23 c9 -16 18 -46 21 -67 13 -79 -37 -408 -71 -476 -8 -15 -14 -38 -14 -53 0
-16 -6 -25 -15 -25 -8 0 -14 -3 -13 -7 1 -5 -5 -24 -13 -43 -21 -46 -36 -96
-45 -143 -3 -21 -13 -41 -20 -44 -8 -3 -14 -16 -14 -29 0 -13 -5 -24 -11 -24
-6 0 -9 7 -5 15 5 14 -5 19 -32 16 -6 -1 -17 10 -22 24 -5 14 -13 25 -17 25
-12 0 -33 51 -33 78 0 14 -7 30 -15 36 -8 6 -16 24 -17 39 -1 16 -8 33 -15 39
-7 6 -13 23 -13 38 0 16 -6 30 -12 33 -9 3 -7 10 7 22 11 9 15 14 8 11 -13 -7
-24 6 -38 48 -5 16 -20 33 -33 37 -20 8 -23 5 -29 -21 -3 -17 -12 -30 -20 -30
-26 0 -58 34 -61 65 -2 17 -10 33 -17 37 -7 5 -11 17 -8 28 4 16 14 20 44 20
32 0 42 5 51 25 6 13 15 22 19 19 5 -3 9 6 9 19 0 16 7 26 20 30 24 6 26 30 5
50 -13 14 -10 16 28 22 79 12 131 34 156 66 14 17 36 35 49 40 17 7 23 15 19
28 -3 14 -1 18 9 14 8 -3 14 1 14 8 0 7 3 9 7 6 4 -4 18 4 32 17 24 22 46 32
78 35 7 0 19 -12 27 -28z m-1412 -43 c-15 -15 -26 -4 -18 18 5 13 9 15 18 6 9
-9 9 -15 0 -24z m-42 -8 c0 -5 -5 -10 -11 -10 -5 0 -7 5 -4 10 3 6 8 10 11 10
2 0 4 -4 4 -10z m-15 -51 c-4 -6 -13 -8 -19 -6 -7 3 -12 -3 -12 -15 1 -12 -5
-23 -13 -26 -9 -3 -11 0 -6 8 6 9 1 10 -16 5 -22 -7 -21 -5 9 29 17 20 32 42
32 49 0 6 7 1 16 -11 8 -12 12 -27 9 -33z m1198 26 c-7 -21 -12 -19 -10 4 0
11 5 18 9 15 4 -3 5 -11 1 -19z m-568 -25 c3 -5 2 -10 -4 -10 -5 0 -13 5 -16
10 -3 6 -2 10 4 10 5 0 13 -4 16 -10z m545 2 c0 -7 -19 -13 -115 -39 -17 -5
-18 -4 -6 11 7 9 25 16 40 17 14 0 35 4 46 9 26 11 35 12 35 2z m-500 -22 c13
-8 13 -10 -2 -10 -9 0 -20 5 -23 10 -8 13 5 13 25 0z m55 -20 c13 -6 15 -9 5
-9 -8 0 -22 4 -30 9 -18 12 -2 12 25 0z m292 4 c-3 -3 -12 -4 -19 -1 -8 3 -5
6 6 6 11 1 17 -2 13 -5z m-1125 -46 c-7 -7 -12 -8 -12 -2 0 6 3 14 7 17 3 4 9
5 12 2 2 -3 -1 -11 -7 -17z m-952 2 c0 -5 -2 -10 -4 -10 -3 0 -8 5 -11 10 -3
6 -1 10 4 10 6 0 11 -4 11 -10z m1993 -7 c-7 -2 -19 -2 -25 0 -7 3 -2 5 12 5
14 0 19 -2 13 -5z m493 -700 c-10 -10 -19 5 -10 18 6 11 8 11 12 0 2 -7 1 -15
-2 -18z m-878 -175 c7 -9 19 -24 28 -33 14 -14 13 -19 -13 -60 -27 -43 -53
-59 -53 -32 0 8 -4 7 -10 -3 -7 -12 -10 -12 -10 -1 0 9 -8 11 -25 7 -14 -4
-25 -2 -25 4 0 5 11 10 25 10 19 0 25 5 25 23 0 12 9 28 20 35 11 7 20 21 20
32 0 17 -5 19 -25 14 -20 -5 -25 -2 -25 13 0 11 3 22 6 26 8 8 45 -13 62 -35z
m959 -30 c-3 -8 -6 -5 -6 6 -1 11 2 17 5 13 3 -3 4 -12 1 -19z m-480 -940 c-3
-8 -6 -5 -6 6 -1 11 2 17 5 13 3 -3 4 -12 1 -19z m-3 -119 c-3 -5 -10 -7 -15
-3 -5 3 -7 10 -3 15 3 5 10 7 15 3 5 -3 7 -10 3 -15z m-670 -871 c12 -16 18
-19 22 -10 9 21 34 13 34 -10 0 -14 12 -31 30 -43 30 -20 39 -35 20 -35 -5 0
-10 -8 -10 -17 0 -15 -2 -16 -10 -3 -8 12 -10 8 -11 -15 l-1 -30 -8 30 -8 30
-1 -30 c-1 -23 -3 -27 -11 -15 -8 13 -10 12 -10 -2 0 -10 7 -18 16 -18 8 0 12
-5 9 -10 -4 -6 -13 -7 -24 -1 -20 11 -35 4 -44 -21 -3 -10 -16 -18 -27 -18
-11 0 -20 -4 -20 -10 0 -5 -4 -10 -10 -10 -5 0 -10 11 -10 25 0 14 -4 25 -10
25 -5 0 -10 7 -10 15 0 8 9 15 20 15 11 0 20 4 20 8 0 5 -21 8 -47 6 -49 -2
-83 9 -83 26 0 15 56 40 90 40 34 0 76 32 65 49 -3 6 -11 9 -16 6 -5 -4 -9 3
-9 14 0 17 11 28 31 30 4 1 14 -9 23 -21z m-149 -68 c3 -5 -3 -10 -15 -10 -12
0 -18 5 -15 10 3 6 10 10 15 10 5 0 12 -4 15 -10z m305 -35 c0 -8 -7 -15 -15
-15 -26 0 -18 20 13 29 1 1 2 -6 2 -14z m-379 -66 c-16 -6 -28 -6 -35 1 -7 7
1 10 25 9 32 0 33 -1 10 -10z m89 -5 c0 -14 -3 -14 -15 -4 -8 7 -15 14 -15 16
0 2 7 4 15 4 8 0 15 -7 15 -16z m-102 -42 c2 -7 -3 -12 -12 -12 -9 0 -16 7
-16 16 0 17 22 14 28 -4z m-278 -145 c0 -8 -3 -17 -7 -20 -9 -9 -34 13 -27 24
8 14 34 11 34 -4z m330 -7 c-8 -5 -19 -10 -25 -10 -5 0 -3 5 5 10 8 5 20 10
25 10 6 0 3 -5 -5 -10z"/>
<path d="M2621 4772 c-14 -27 -14 -29 4 -29 18 0 29 27 16 40 -6 6 -13 1 -20
-11z"/>
<path d="M2672 4760 c0 -14 2 -19 5 -12 2 6 2 18 0 25 -3 6 -5 1 -5 -13z"/>
<path d="M2740 4764 c-14 -7 -25 -17 -25 -21 0 -4 -4 -14 -8 -20 -5 -9 1 -17
17 -25 35 -15 33 -24 -11 -36 l-38 -11 55 0 c30 -1 69 -1 85 -2 39 -1 135 22
135 33 0 9 -77 4 -86 -5 -3 -3 -12 -3 -20 0 -11 4 -12 8 -3 20 10 11 7 19 -14
39 -17 15 -27 20 -28 12 0 -7 -5 -3 -11 10 -12 25 -14 25 -48 6z"/>
<path d="M2870 4765 c-10 -11 -9 -18 3 -30 30 -30 60 -13 49 28 -5 21 -35 22
-52 2z"/>
<path d="M2575 4750 c-3 -5 1 -10 9 -10 9 0 16 5 16 10 0 6 -4 10 -9 10 -6 0
-13 -4 -16 -10z"/>
<path d="M2591 4720 c-1 -21 -35 -40 -60 -33 -27 7 -28 -17 -3 -40 24 -22 77
-23 68 -2 -7 18 20 21 28 3 5 -10 7 -10 12 0 3 6 13 12 22 12 15 1 15 2 0 11
-10 5 -18 19 -18 29 0 25 -30 27 -31 3 -1 -12 -4 -10 -9 7 -4 14 -8 18 -9 10z"/>
<path d="M2956 4722 c-3 -6 -2 -13 3 -17 14 -8 91 -2 91 8 0 4 -6 7 -14 7 -7
0 -27 3 -44 6 -16 3 -32 1 -36 -4z"/>
<path d="M2997 4673 c-13 -12 -7 -33 8 -33 8 0 15 9 15 20 0 20 -11 26 -23 13z"/>
<path d="M3228 4643 c7 -3 16 -2 19 1 4 3 -2 6 -13 5 -11 0 -14 -3 -6 -6z"/>
<path d="M2585 4610 c-3 -5 1 -10 9 -10 9 0 16 5 16 10 0 6 -4 10 -9 10 -6 0
-13 -4 -16 -10z"/>
<path d="M2651 4586 c-9 -10 -8 -15 3 -19 14 -5 36 10 36 25 0 13 -27 9 -39
-6z"/>
<path d="M2458 4483 c-23 -6 -23 -20 1 -28 23 -7 53 4 48 19 -4 12 -24 16 -49
9z"/>
<path d="M1737 3593 c-4 -3 -7 -15 -7 -26 0 -19 1 -19 20 -2 11 10 17 22 14
26 -6 11 -18 12 -27 2z"/>
<path d="M3960 2809 c0 -5 5 -7 10 -4 6 3 10 8 10 11 0 2 -4 4 -10 4 -5 0 -10
-5 -10 -11z"/>
<path d="M3365 2350 c-3 -5 -1 -10 4 -10 6 0 11 5 11 10 0 6 -2 10 -4 10 -3 0
-8 -4 -11 -10z"/>
<path d="M2190 5771 c-22 -6 -26 -14 -31 -61 -3 -30 -2 -59 2 -64 12 -14 105
-25 136 -17 43 11 44 52 1 82 -18 13 -43 34 -54 46 -12 13 -23 23 -25 22 -2
-1 -15 -4 -29 -8z"/>
<path d="M1930 5690 c-93 -34 -86 -30 -70 -40 21 -13 137 -12 145 1 8 12 -2
59 -13 59 -4 -1 -32 -10 -62 -20z"/>
<path d="M491 4554 c-23 -29 -27 -44 -11 -44 16 0 62 -81 76 -133 14 -55 9
-239 -8 -295 -11 -37 -39 -52 -97 -52 -21 0 -53 -5 -70 -11 -25 -9 -43 -9 -73
0 -46 14 -71 2 -66 -33 4 -29 46 -33 253 -23 117 6 190 5 235 -3 95 -17 230
-10 244 12 8 14 7 21 -6 34 -13 14 -42 17 -155 20 -133 3 -139 4 -160 28 -25
29 -38 99 -29 153 17 98 17 115 3 151 -8 20 -13 42 -12 47 26 104 28 124 11
150 -14 21 -24 25 -66 25 -41 0 -52 -4 -69 -26z"/>
<path d="M5017 4544 c-3 -3 -46 -7 -94 -8 -86 -1 -88 -1 -88 -26 0 -19 6 -26
31 -30 47 -10 131 -60 177 -105 54 -52 97 -106 97 -121 0 -15 -68 -104 -80
-104 -5 0 -42 -29 -82 -65 -40 -36 -91 -71 -113 -78 -22 -8 -41 -21 -43 -29
-4 -20 37 -28 180 -35 97 -4 107 -3 116 14 14 25 1 44 -39 57 -18 6 -37 19
-43 29 -9 15 -6 22 19 40 17 12 44 36 60 54 59 63 117 69 167 16 19 -21 51
-53 72 -71 20 -18 36 -36 36 -41 0 -15 -24 -29 -55 -33 -26 -3 -30 -7 -30 -33
0 -26 3 -30 25 -26 22 3 72 2 210 -2 41 -2 45 0 48 24 2 21 -6 31 -47 57 -27
18 -65 38 -83 44 -43 14 -61 30 -103 92 -19 28 -42 61 -51 74 -16 21 -16 25 0
61 11 24 41 56 81 87 35 27 64 52 64 55 1 3 -12 24 -28 46 -26 36 -35 41 -75
44 -57 5 -66 2 -66 -22 0 -13 10 -24 30 -30 18 -7 30 -18 30 -29 0 -27 -100
-120 -130 -120 -28 0 -140 98 -140 123 0 7 11 19 25 25 30 14 33 47 6 62 -21
11 -74 14 -84 4z"/>
<path d="M435 2932 c-38 -6 -100 -34 -131 -57 -23 -18 -33 -34 -37 -66 -3 -25
-17 -56 -36 -79 -27 -34 -31 -47 -31 -99 0 -76 33 -151 66 -151 26 0 51 -35
62 -87 15 -75 120 -106 310 -93 243 16 411 104 306 160 -21 12 -28 11 -52 -7
-15 -12 -26 -26 -24 -32 1 -6 -7 -11 -19 -11 -11 0 -29 -10 -38 -21 -16 -19
-30 -22 -138 -27 -185 -7 -206 -2 -280 72 -68 69 -85 106 -59 135 15 16 40 18
286 19 337 2 371 11 319 84 -15 20 -18 32 -11 37 6 4 10 30 10 58 -1 47 -4 53
-30 64 -16 7 -28 19 -28 30 0 12 -10 21 -27 25 -16 4 -45 16 -65 27 -33 16
-46 18 -95 9 -42 -7 -62 -7 -72 1 -13 11 -142 17 -186 9z m232 -70 c10 -5 35
-12 56 -16 20 -4 37 -10 37 -14 0 -4 18 -27 40 -52 47 -53 50 -76 13 -93 -16
-6 -32 -17 -38 -24 -16 -20 -267 -18 -359 2 -97 22 -106 32 -73 88 25 42 93
106 126 118 23 9 177 2 198 -9z"/>
<path d="M4362 2825 c0 -24 4 -42 9 -39 12 7 11 84 -1 84 -5 0 -9 -20 -8 -45z"/>
<path d="M4625 2318 c-26 -10 -27 -12 -10 -18 27 -9 65 0 65 16 0 16 -13 17
-55 2z"/>
<path d="M70 2303 c0 -28 15 -44 34 -37 25 10 16 48 -11 52 -17 3 -23 -2 -23
-15z"/>
<path d="M3870 1495 c-10 -12 -9 -16 5 -21 19 -8 40 9 31 25 -10 15 -21 14
-36 -4z"/>
</g>
</svg>
